<?xml version="1.0" standalone="no"?>
<!DOCTYPE svg PUBLIC "-//W3C//DTD SVG 20010904//EN"
 "http://www.w3.org/TR/2001/REC-SVG-20010904/DTD/svg10.dtd">
<svg version="1.0" xmlns="http://www.w3.org/2000/svg"
 width="600" height="450" viewBox="0 0 577.000000 433.000000"
 preserveAspectRatio="xMidYMid meet">

<g transform="translate(0.000000,433.000000) scale(0.100000,-0.100000)"
fill="#FFFFFF" stroke="none">
<path d="M4140 2603 c-42 -13 -60 -29 -71 -60 -12 -37 -1 -83 26 -113 14 -15
11 -19 -22 -41 -20 -13 -41 -37 -46 -53 -14 -41 13 -93 58 -112 46 -19 126
-18 169 3 33 15 37 15 54 0 10 -9 31 -17 47 -17 l29 0 -33 34 c-31 32 -33 37
-22 67 15 44 14 49 -9 49 -13 0 -22 -9 -26 -25 -3 -14 -9 -25 -13 -25 -4 0
-26 19 -49 43 l-42 43 40 33 c36 29 40 36 40 76 0 49 -20 78 -66 95 -27 11
-40 11 -64 3z m77 -55 c24 -19 15 -65 -18 -92 -17 -14 -34 -26 -39 -26 -17 0
-50 53 -50 81 0 51 64 73 107 37z m-18 -220 c52 -47 54 -51 36 -64 -10 -8 -42
-14 -70 -14 -59 0 -95 25 -95 65 0 23 41 65 64 65 6 -1 36 -24 65 -52z"/>
<path d="M1970 2405 l0 -195 86 0 c100 0 146 17 164 61 17 41 5 94 -28 117
l-27 20 25 20 c20 16 25 29 25 65 0 77 -51 107 -179 107 l-66 0 0 -195z m170
142 c32 -16 40 -70 14 -98 -13 -15 -31 -19 -76 -19 l-58 0 0 65 0 65 48 0 c26
0 58 -6 72 -13z m27 -191 c25 -30 24 -56 -5 -88 -11 -14 -31 -18 -79 -18 l-63
0 0 71 0 71 62 -4 c51 -4 65 -9 85 -32z"/>
<path d="M2360 2443 c-85 -243 -83 -233 -56 -233 19 0 26 9 40 54 l17 54 82
-1 82 -2 19 -52 c15 -43 23 -53 41 -53 22 0 21 5 -44 195 l-66 195 -30 0 c-30
0 -31 -1 -85 -157z m119 17 c17 -52 31 -98 31 -102 0 -5 -29 -8 -65 -8 -36 0
-65 4 -65 10 0 13 62 201 65 198 2 -2 17 -46 34 -98z"/>
<path d="M2680 2405 c0 -188 1 -195 20 -195 18 0 20 7 20 75 l0 75 34 0 c32 0
37 -5 78 -75 37 -65 47 -75 71 -75 32 0 33 -4 -31 95 l-39 60 34 30 c31 27 35
36 36 82 1 43 -4 57 -23 78 -28 30 -77 45 -147 45 l-53 0 0 -195z m162 125
c24 -24 29 -36 24 -58 -11 -44 -50 -72 -102 -72 l-44 0 0 80 0 80 46 0 c37 0
51 -5 76 -30z"/>
<path d="M2990 2405 l0 -195 78 0 c124 1 174 26 211 106 39 83 20 185 -45 237
-40 31 -98 47 -176 47 l-68 0 0 -195z m174 141 c18 -8 46 -30 61 -51 52 -67
32 -183 -38 -226 -24 -15 -46 -19 -92 -17 l-60 3 -3 140 c-1 76 0 145 2 152 7
17 87 17 130 -1z"/>
<path d="M3458 2523 c-14 -43 -45 -130 -67 -193 -23 -63 -41 -116 -41 -117 0
-2 11 -3 25 -3 20 0 26 7 36 43 19 63 22 65 107 64 l77 -2 19 -52 c15 -43 23
-53 41 -53 27 0 30 -12 -57 238 -52 151 -53 152 -83 152 -29 0 -32 -4 -57 -77z
m96 -73 c14 -47 26 -88 26 -92 0 -5 -29 -8 -65 -8 -72 0 -73 1 -50 67 8 24 22
64 31 89 9 25 20 42 24 37 4 -4 19 -46 34 -93z"/>
<path d="M3750 2405 c0 -188 1 -195 20 -195 19 0 20 7 20 195 0 188 -1 195
-20 195 -19 0 -20 -7 -20 -195z"/>
<path d="M765 2497 c-3 -7 -4 -143 -3 -302 l3 -290 33 -3 c27 -3 32 0 32 17 0
12 -4 21 -10 21 -6 0 -10 95 -10 265 l0 265 430 0 430 0 0 -265 0 -265 -160 0
c-152 0 -160 -1 -160 -19 0 -18 9 -20 118 -23 64 -2 145 -2 180 0 l62 3 0 304
0 305 -470 0 c-370 0 -472 -3 -475 -13z"/>
<path d="M1528 2381 c-43 -13 -65 -31 -38 -31 41 0 -75 -115 -160 -158 -39
-19 -53 -30 -35 -26 90 20 188 66 238 113 16 14 37 25 48 23 17 -3 19 1 13 25
-19 75 -14 71 -66 54z"/>
<path d="M1050 2292 c-82 -39 -112 -121 -70 -189 54 -89 187 -80 227 14 21 52
11 100 -30 141 -35 34 -94 50 -127 34z m134 -131 c-1 -56 -38 -91 -97 -91 -50
0 -97 44 -97 89 0 31 1 31 39 25 26 -4 47 -1 67 10 16 9 43 15 59 13 29 -2 30
-4 29 -46z"/>
<path d="M1540 2149 l0 -100 33 3 32 3 3 98 3 97 -36 0 -35 0 0 -101z"/>
<path d="M1450 2120 l0 -70 30 0 30 0 0 70 0 70 -30 0 -30 0 0 -70z"/>
<path d="M1352 2103 c3 -46 4 -48 36 -51 l32 -3 0 50 0 51 -36 0 -35 0 3 -47z"/>
<path d="M1270 2085 c0 -32 2 -35 30 -35 28 0 30 3 30 35 0 32 -2 35 -30 35
-28 0 -30 -3 -30 -35z"/>
<path d="M2416 2110 c-40 -13 -65 -38 -72 -76 -10 -54 13 -84 96 -129 63 -34
76 -44 78 -68 2 -17 -3 -36 -13 -47 -22 -24 -82 -31 -124 -14 -42 18 -41 18
-41 -6 0 -27 35 -43 96 -44 61 0 100 18 120 56 34 65 8 109 -97 164 -64 34
-69 39 -69 69 0 18 7 39 16 46 18 15 87 18 120 6 19 -7 21 -4 17 17 -7 33 -63
45 -127 26z"/>
<path d="M2725 2113 c-65 -18 -96 -77 -72 -136 12 -27 29 -41 82 -68 63 -31
95 -60 95 -84 -2 -44 -79 -70 -142 -49 -37 13 -38 12 -38 -11 0 -19 7 -26 28
-31 15 -3 34 -8 43 -10 32 -9 104 15 127 41 24 29 29 74 10 108 -14 28 -32 41
-88 68 -86 41 -103 79 -52 119 27 22 68 23 115 5 13 -5 17 -2 17 13 0 12 -4
23 -9 26 -14 9 -94 15 -116 9z"/>
<path d="M3035 2106 c-67 -30 -95 -84 -95 -183 0 -140 92 -225 209 -193 64 17
108 61 122 124 15 68 4 155 -24 197 -43 62 -139 87 -212 55z m128 -37 c90 -41
90 -253 -1 -287 -59 -22 -79 -22 -113 1 -86 57 -93 213 -13 276 30 23 88 28
127 10z"/>
<path d="M3469 2110 c-45 -13 -88 -52 -110 -98 -18 -35 -21 -56 -17 -107 10
-117 77 -179 194 -179 66 0 94 14 94 45 0 18 -2 18 -36 4 -48 -20 -77 -19
-124 5 -59 30 -83 71 -83 141 0 48 4 64 28 94 45 60 125 80 198 50 16 -7 18
-4 15 16 -2 15 -12 26 -28 30 -34 9 -99 9 -131 -1z"/>
<path d="M4844 2106 c-62 -28 -83 -99 -45 -148 11 -13 44 -36 74 -51 31 -15
63 -34 71 -43 21 -21 20 -57 -2 -77 -22 -20 -99 -25 -129 -9 -29 16 -33 15
-33 -8 0 -27 35 -43 94 -43 71 -1 112 23 127 72 17 59 -8 96 -95 141 -77 40
-94 60 -77 96 18 41 81 52 147 27 15 -6 21 32 6 41 -23 14 -109 15 -138 2z"/>
<path d="M2073 2078 c-6 -18 -36 -104 -67 -190 l-55 -158 24 0 c16 0 26 7 30
23 22 79 20 77 110 77 l83 0 17 -50 c12 -37 22 -50 36 -50 10 0 19 6 19 13 0
6 -27 90 -60 186 -33 96 -60 176 -60 178 0 2 -15 3 -33 3 -29 0 -35 -4 -44
-32z m78 -105 c16 -49 29 -91 29 -95 0 -5 -30 -8 -66 -8 l-66 0 6 28 c12 49
59 173 64 167 3 -3 18 -44 33 -92z"/>
<path d="M3710 1920 c0 -183 1 -190 20 -190 19 0 20 7 20 190 0 183 -1 190
-20 190 -19 0 -20 -7 -20 -190z"/>
<path d="M3947 2093 c-3 -10 -32 -96 -65 -190 -58 -167 -59 -173 -38 -173 17
0 26 10 40 50 l18 50 83 0 83 0 18 -50 c14 -40 22 -50 41 -50 22 0 21 4 -38
173 -33 94 -63 180 -66 190 -4 12 -16 17 -38 17 -22 0 -34 -5 -38 -17z m78
-129 c14 -45 25 -85 25 -88 0 -3 -31 -6 -68 -6 l-69 0 35 101 c23 67 38 96 43
87 5 -7 20 -50 34 -94z"/>
<path d="M4180 2095 c0 -12 13 -15 55 -15 l55 0 0 -175 c0 -168 1 -175 20
-175 19 0 20 8 22 173 l3 172 53 3 c37 2 52 7 52 18 0 11 -23 14 -130 14 -109
0 -130 -2 -130 -15z"/>
<path d="M4498 1920 l-3 -190 108 0 c102 0 107 1 107 21 0 19 -5 20 -85 17
-47 -2 -86 0 -88 4 -1 4 0 35 1 67 l4 60 71 3 c59 2 72 6 75 21 3 15 -6 17
-72 17 l-76 0 0 70 0 70 85 0 c69 0 85 3 85 15 0 12 -18 15 -105 15 l-104 0
-3 -190z"/>
<path d="M915 1979 c-39 -22 -55 -52 -55 -106 l0 -53 81 0 c73 0 81 2 76 18
-3 9 -14 46 -25 82 -20 69 -36 81 -77 59z"/>
<path d="M1066 1982 c-8 -13 6 -92 15 -86 14 8 40 75 33 85 -7 11 -41 12 -48
1z"/>
<path d="M1205 1978 c-21 -62 -45 -143 -45 -150 0 -4 37 -8 81 -8 l81 0 -4 57
c-4 48 -10 61 -37 85 -33 29 -69 37 -76 16z"/>
<path d="M1076 1867 c-30 -30 -35 -53 -8 -38 43 26 56 41 45 52 -9 9 -18 5
-37 -14z"/>
<path d="M1095 1830 c-3 -5 3 -10 14 -10 12 0 21 5 21 10 0 6 -6 10 -14 10 -8
0 -18 -4 -21 -10z"/>
</g>
</svg>
