<?xml version="1.0" standalone="no"?>
<!DOCTYPE svg PUBLIC "-//W3C//DTD SVG 20010904//EN"
 "http://www.w3.org/TR/2001/REC-SVG-20010904/DTD/svg10.dtd">
<svg version="1.0" xmlns="http://www.w3.org/2000/svg"
 width="35.93" height="32" viewBox="0 0 2000.000000 1500.000000"
 preserveAspectRatio="xMidYMid meet">

<g transform="translate(0.000000,1500.000000) scale(0.100000,-0.100000)"
fill="#000000" stroke="none">
<path d="M14319 9017 c-155 -44 -245 -163 -243 -323 1 -87 35 -167 109 -259
26 -33 52 -65 57 -71 6 -8 -15 -24 -67 -49 -94 -47 -168 -112 -203 -179 -36
-70 -38 -185 -3 -263 62 -139 250 -232 469 -233 148 0 278 37 375 106 l49 35
68 -65 68 -66 101 0 c56 0 101 3 101 6 0 5 -71 73 -199 190 l-44 40 32 67 c29
61 60 174 61 220 0 15 -10 17 -73 17 l-73 0 -13 -62 c-11 -52 -32 -110 -47
-127 -2 -2 -51 41 -109 95 -59 54 -134 124 -167 155 l-62 55 82 47 c153 88
221 182 230 312 10 159 -74 290 -220 343 -57 20 -220 26 -279 9z m203 -137
c81 -23 138 -102 138 -191 0 -100 -55 -171 -189 -247 l-65 -36 -53 60 c-78 87
-113 158 -113 229 0 32 7 72 16 92 40 82 156 123 266 93z m33 -814 c140 -129
192 -183 185 -191 -21 -26 -149 -75 -223 -86 -89 -13 -202 -1 -271 30 -168 74
-193 253 -50 352 49 33 145 80 157 76 4 -1 95 -83 202 -181z"/>
<path d="M6840 8326 l0 -676 228 0 c378 0 473 20 568 114 67 67 96 141 96 247
1 97 -21 164 -73 222 -39 45 -126 97 -161 97 -29 0 -21 18 12 25 17 4 54 29
84 56 72 66 99 128 100 234 1 72 -3 88 -32 148 -28 55 -46 77 -94 113 -106 78
-152 87 -460 92 l-268 4 0 -676z m579 499 c73 -40 104 -89 109 -169 3 -52 0
-69 -25 -116 -55 -105 -148 -140 -375 -140 l-128 0 0 231 0 231 183 -4 c181
-3 182 -3 236 -33z m-10 -579 c96 -35 148 -102 158 -200 10 -102 -37 -189
-127 -230 -40 -18 -69 -21 -242 -24 l-198 -4 0 242 0 242 183 -4 c135 -4 193
-10 226 -22z"/>
<path d="M8360 8997 c0 -2 -103 -300 -230 -663 -126 -362 -230 -665 -230 -672
0 -10 20 -12 83 -10 l82 3 60 178 60 177 285 0 285 0 60 -177 60 -178 83 -3
c58 -2 82 1 82 9 0 6 -102 310 -227 675 l-228 664 -112 0 c-62 0 -113 -1 -113
-3z m169 -294 c28 -87 80 -247 115 -355 l64 -198 -238 0 -237 0 118 352 c66
193 119 353 119 355 0 21 17 -23 59 -154z"/>
<path d="M9272 8328 l3 -673 77 -3 78 -3 2 268 3 268 104 0 104 0 156 -251
c86 -139 163 -259 170 -268 11 -13 33 -16 102 -16 49 0 89 3 89 6 0 4 -76 127
-170 274 -93 147 -170 272 -170 276 0 5 21 18 48 28 27 11 71 44 103 75 71 72
100 142 107 262 12 226 -115 383 -338 418 -36 6 -156 11 -268 11 l-202 0 2
-672z m479 516 c75 -22 141 -90 159 -164 26 -109 -1 -220 -72 -287 -57 -55
-97 -66 -260 -71 l-148 -4 0 271 0 271 133 0 c93 0 150 -5 188 -16z"/>
<path d="M10370 8324 l0 -677 263 6 c218 4 275 9 338 26 121 31 194 73 281
161 130 132 188 286 188 498 0 195 -51 329 -171 457 -78 82 -163 135 -274 172
-77 26 -90 27 -352 31 l-273 4 0 -678z m490 526 c146 -23 291 -129 358 -261
106 -210 65 -502 -93 -662 -100 -102 -184 -127 -422 -127 l-173 0 0 530 0 530
133 0 c72 0 161 -5 197 -10z"/>
<path d="M12047 8928 c-13 -40 -117 -339 -231 -664 -113 -325 -206 -596 -206
-603 0 -8 24 -11 83 -9 l82 3 60 175 60 175 285 3 285 2 60 -177 60 -178 83
-3 c61 -2 82 0 82 10 0 7 -102 311 -227 675 l-227 663 -112 0 -112 0 -25 -72z
m227 -330 c46 -145 98 -305 114 -355 l30 -93 -237 0 -237 0 119 355 c65 195
120 355 122 355 2 0 42 -118 89 -262z"/>
<path d="M12992 8328 l3 -673 78 -3 77 -3 0 676 0 675 -80 0 -80 0 2 -672z"/>
<path d="M2669 8691 l-24 -19 0 -1037 0 -1037 24 -19 c19 -16 40 -19 122 -19
l99 0 0 75 0 75 -45 0 -45 0 0 925 0 925 1495 0 1495 0 0 -925 0 -925 -565 0
-565 0 0 -75 0 -75 619 0 620 0 20 26 c21 27 21 30 21 1051 l0 1024 -25 24
-24 25 -1599 0 c-1560 0 -1600 0 -1623 -19z"/>
<path d="M5281 8247 c-96 -34 -176 -67 -178 -73 -2 -6 19 -21 47 -34 27 -13
50 -29 50 -35 0 -22 -164 -208 -245 -279 -141 -122 -373 -259 -517 -305 -39
-13 -49 -28 -23 -37 21 -9 257 58 392 111 234 91 399 192 539 327 l81 79 56
-31 c30 -16 58 -30 61 -30 12 0 5 42 -29 182 -19 79 -37 153 -40 166 -3 12 -9
22 -13 21 -4 0 -85 -28 -181 -62z"/>
<path d="M3667 7949 c-46 -11 -130 -53 -176 -88 -56 -43 -119 -137 -142 -213
-32 -103 -25 -229 18 -320 110 -234 379 -329 610 -216 62 30 148 108 181 163
157 262 14 607 -279 674 -53 13 -160 12 -212 0z m405 -305 c42 -22 50 -47 46
-143 -4 -97 -23 -149 -84 -219 -45 -53 -103 -87 -183 -107 -161 -42 -340 54
-402 213 -21 54 -33 192 -18 207 3 3 22 -1 41 -9 20 -9 65 -20 100 -26 88 -14
165 2 254 51 108 59 176 68 246 33z"/>
<path d="M5362 7802 c-9 -7 -12 -83 -10 -348 l3 -339 94 -3 c60 -2 98 1 107 9
19 16 21 658 2 677 -14 14 -175 17 -196 4z"/>
<path d="M5027 7603 c-4 -3 -7 -114 -7 -245 l0 -239 108 3 107 3 3 229 c2 160
-1 233 -9 242 -8 10 -38 14 -104 14 -50 0 -95 -3 -98 -7z"/>
<path d="M4707 7453 c-4 -3 -7 -79 -7 -169 0 -138 2 -163 16 -168 9 -3 51 -6
94 -6 43 0 85 3 94 6 24 9 24 329 0 338 -21 8 -189 8 -197 -1z"/>
<path d="M10690 7348 c-273 -26 -463 -224 -511 -532 -15 -92 -6 -313 15 -391
24 -88 77 -192 129 -256 56 -69 161 -141 247 -170 81 -27 231 -36 326 -20 213
38 385 204 449 436 23 82 31 314 15 413 -58 363 -306 555 -670 520z m262 -180
c114 -53 202 -175 233 -323 19 -91 19 -274 0 -365 -22 -104 -60 -176 -129
-246 -70 -69 -139 -101 -242 -111 -221 -21 -395 111 -454 343 -39 150 -21 393
36 506 51 102 131 176 227 210 81 29 252 22 329 -14z"/>
<path d="M12140 7341 c-160 -23 -265 -75 -380 -191 -97 -97 -138 -168 -172
-301 -17 -71 -20 -103 -16 -223 4 -120 9 -153 33 -225 92 -272 331 -431 648
-431 108 0 207 19 283 54 l54 25 0 84 0 83 -77 -38 c-98 -48 -172 -62 -293
-55 -300 17 -480 216 -482 532 -1 173 39 282 143 391 105 108 209 149 384 148
107 -1 174 -16 298 -69 15 -6 17 0 17 73 l0 80 -47 20 c-27 11 -71 25 -100 31
-72 15 -227 21 -293 12z"/>
<path d="M4397 7334 c-4 -4 -7 -54 -7 -111 l0 -104 108 3 107 3 0 105 0 105
-101 3 c-55 1 -103 0 -107 -4z"/>
<path d="M8405 7327 c-179 -46 -283 -163 -293 -326 -5 -89 7 -139 47 -203 42
-66 101 -106 299 -204 232 -114 282 -162 282 -266 -1 -91 -60 -165 -156 -194
-108 -32 -301 -6 -411 56 -29 17 -55 30 -58 30 -3 0 -5 -37 -3 -82 l3 -83 47
-23 c155 -74 395 -81 537 -16 85 38 136 86 173 161 29 60 32 75 32 157 0 78
-3 99 -26 146 -50 102 -116 152 -330 250 -210 95 -268 150 -268 253 0 128 103
207 269 207 77 0 175 -22 231 -50 22 -11 42 -20 45 -20 3 0 5 37 3 83 l-3 82
-70 24 c-86 29 -270 38 -350 18z"/>
<path d="M9440 7323 c-86 -24 -147 -61 -204 -124 -55 -61 -76 -123 -76 -224 0
-177 80 -262 370 -393 198 -90 267 -162 256 -265 -8 -75 -42 -127 -106 -162
-53 -29 -60 -30 -175 -30 -129 0 -181 12 -280 64 -27 14 -53 27 -57 29 -5 2
-8 -34 -8 -81 l0 -85 49 -21 c171 -73 393 -80 536 -16 67 29 147 103 174 159
45 92 43 233 -4 326 -39 78 -102 124 -302 221 -208 101 -264 143 -282 213 -36
145 81 256 268 256 77 0 175 -22 231 -50 22 -11 42 -20 45 -20 3 0 5 37 3 83
l-3 82 -70 24 c-96 32 -271 39 -365 14z"/>
<path d="M16848 7325 c-116 -29 -209 -98 -256 -190 -34 -67 -42 -186 -17 -270
14 -48 28 -69 76 -117 51 -50 88 -72 246 -149 221 -109 277 -153 288 -232 16
-109 -44 -202 -152 -233 -115 -34 -305 -6 -419 61 -23 14 -45 25 -49 25 -3 0
-5 -37 -3 -82 l3 -83 45 -22 c104 -51 289 -75 415 -54 145 24 264 110 306 219
34 88 32 199 -4 277 -16 33 -40 73 -55 89 -25 27 -153 116 -167 116 -3 0 -66
29 -139 64 -195 94 -236 136 -236 241 0 66 16 100 64 143 87 76 298 82 436 12
22 -11 42 -20 45 -20 3 0 5 37 3 83 l-3 82 -70 24 c-89 30 -270 38 -357 16z"/>
<path d="M7202 7273 c-85 -234 -442 -1269 -442 -1280 0 -11 17 -13 83 -11 l82
3 60 178 60 177 285 -2 285 -3 60 -177 60 -178 82 0 c46 0 83 3 83 8 0 4 -102
307 -227 674 l-228 668 -111 0 -111 0 -21 -57z m361 -795 c-4 -7 -473 -12
-473 -5 0 2 51 154 113 338 63 184 117 345 121 359 6 20 32 -49 125 -330 65
-195 116 -358 114 -362z"/>
<path d="M12840 6655 l0 -675 80 0 80 0 0 675 0 675 -80 0 -80 0 0 -675z"/>
<path d="M13473 6662 c-128 -367 -233 -671 -233 -675 0 -4 38 -7 84 -7 l84 0
59 178 60 177 285 3 286 2 59 -177 60 -178 88 -3 c81 -3 87 -1 80 15 -7 20
-366 1064 -422 1231 l-35 102 -111 0 -112 0 -232 -668z m465 167 c62 -190 112
-349 112 -353 0 -9 -470 -8 -470 2 -1 19 236 710 241 704 3 -4 56 -163 117
-353z"/>
<path d="M14500 7260 l0 -70 180 0 180 0 0 -605 0 -605 80 0 80 0 0 605 0 605
180 0 180 0 0 70 0 70 -440 0 -440 0 0 -70z"/>
<path d="M15580 6655 l0 -675 373 2 372 3 3 68 3 67 -296 0 -295 0 0 235 0
235 255 0 255 0 0 70 0 70 -255 0 -255 0 0 230 0 230 290 0 290 0 0 70 0 70
-370 0 -370 0 0 -675z"/>
<path d="M3239 6885 c-69 -25 -115 -54 -162 -101 -86 -87 -117 -187 -117 -376
l0 -98 290 0 c160 0 290 3 290 8 0 4 -37 136 -82 294 l-83 288 -50 -1 c-27 0
-66 -6 -86 -14z"/>
<path d="M3682 6848 l-20 -53 35 -37 36 -37 -22 -93 c-11 -51 -21 -96 -21
-100 0 -4 34 16 75 45 79 55 76 50 60 120 -4 16 4 33 28 62 l35 40 -22 53 -21
52 -71 0 -71 0 -21 -52z"/>
<path d="M4166 6849 c-8 -30 -49 -163 -89 -296 l-74 -243 289 0 289 0 -3 153
c-3 140 -5 156 -30 209 -57 122 -187 217 -308 226 l-58 4 -16 -53z"/>
<path d="M3751 6496 c-88 -66 -94 -74 -106 -143 -5 -34 -4 -43 7 -43 8 0 62
34 120 75 l105 75 -10 50 c-5 27 -15 50 -21 49 -6 0 -49 -29 -95 -63z"/>
<path d="M3826 6354 l-60 -44 73 0 73 0 -7 38 c-3 20 -10 40 -13 43 -4 4 -34
-13 -66 -37z"/>
</g>
</svg>
